<mxfile host="app.diagrams.net" modified="2022-05-27T09:58:22.286Z" agent="5.0 (Macintosh; Intel Mac OS X 10_15_7) AppleWebKit/537.36 (KHTML, like Gecko) Chrome/97.0.4692.71 Safari/537.36" etag="fdqeyriO32g0zZoBb-y_" version="18.0.2" type="github" pages="2">
  <diagram id="tGioQXvsST5DLqAGkg_Z" name="Page-1">
    <mxGraphModel dx="1186" dy="764" grid="1" gridSize="10" guides="1" tooltips="1" connect="1" arrows="1" fold="1" page="1" pageScale="1" pageWidth="827" pageHeight="1169" math="0" shadow="0">
      <root>
        <mxCell id="0" />
        <mxCell id="1" parent="0" />
        <mxCell id="iGWQNrGughwgW1b6b_QS-2" value="" style="rounded=0;whiteSpace=wrap;html=1;fillColor=#647687;strokeColor=#314354;fontColor=#ffffff;" vertex="1" parent="1">
          <mxGeometry x="190" y="250" width="400" height="580" as="geometry" />
        </mxCell>
        <mxCell id="iGWQNrGughwgW1b6b_QS-3" value="" style="rounded=1;whiteSpace=wrap;html=1;fillColor=#76608a;strokeColor=#432D57;fontColor=#ffffff;" vertex="1" parent="1">
          <mxGeometry x="190" y="250" width="400" height="190" as="geometry" />
        </mxCell>
        <mxCell id="iGWQNrGughwgW1b6b_QS-4" value="" style="shape=curlyBracket;whiteSpace=wrap;html=1;rounded=1;" vertex="1" parent="1">
          <mxGeometry x="150" y="260" width="20" height="170" as="geometry" />
        </mxCell>
        <mxCell id="iGWQNrGughwgW1b6b_QS-5" value="header" style="text;html=1;align=center;verticalAlign=middle;resizable=0;points=[];autosize=1;strokeColor=#23445d;fillColor=#bac8d3;" vertex="1" parent="1">
          <mxGeometry x="80" y="335" width="50" height="20" as="geometry" />
        </mxCell>
        <mxCell id="iGWQNrGughwgW1b6b_QS-6" value="titleLabel" style="rounded=0;whiteSpace=wrap;html=1;fillColor=#fad7ac;strokeColor=#b46504;" vertex="1" parent="1">
          <mxGeometry x="345" y="260" width="90" height="30" as="geometry" />
        </mxCell>
        <mxCell id="iGWQNrGughwgW1b6b_QS-7" value="backButton" style="rounded=0;whiteSpace=wrap;html=1;fillColor=#fad9d5;strokeColor=#ae4132;" vertex="1" parent="1">
          <mxGeometry x="210" y="260" width="80" height="30" as="geometry" />
        </mxCell>
        <mxCell id="iGWQNrGughwgW1b6b_QS-10" value="ImageView" style="text;html=1;strokeColor=none;fillColor=none;align=center;verticalAlign=middle;whiteSpace=wrap;rounded=0;" vertex="1" parent="1">
          <mxGeometry x="345" y="325" width="60" height="30" as="geometry" />
        </mxCell>
        <mxCell id="iGWQNrGughwgW1b6b_QS-12" value="" style="rounded=1;whiteSpace=wrap;html=1;fontSize=10;fillColor=#d0cee2;strokeColor=#56517e;" vertex="1" parent="1">
          <mxGeometry x="190" y="440" width="400" height="390" as="geometry" />
        </mxCell>
        <mxCell id="iGWQNrGughwgW1b6b_QS-14" value="&lt;span style=&quot;color: rgb(193, 132, 1); font-family: &amp;quot;Source Code Pro&amp;quot;, &amp;quot;DejaVu Sans Mono&amp;quot;, &amp;quot;Ubuntu Mono&amp;quot;, &amp;quot;Anonymous Pro&amp;quot;, &amp;quot;Droid Sans Mono&amp;quot;, Menlo, Monaco, Consolas, Inconsolata, Courier, monospace, &amp;quot;PingFang SC&amp;quot;, &amp;quot;Microsoft YaHei&amp;quot;, sans-serif; font-size: 14px; text-align: left; background-color: rgb(250, 250, 250);&quot;&gt;UITableViewCell&lt;/span&gt;" style="rounded=0;whiteSpace=wrap;html=1;fontSize=10;fillColor=#b1ddf0;strokeColor=#10739e;" vertex="1" parent="1">
          <mxGeometry x="205" y="460" width="370" height="40" as="geometry" />
        </mxCell>
        <mxCell id="iGWQNrGughwgW1b6b_QS-15" value="&lt;span style=&quot;color: rgb(193, 132, 1); font-family: &amp;quot;Source Code Pro&amp;quot;, &amp;quot;DejaVu Sans Mono&amp;quot;, &amp;quot;Ubuntu Mono&amp;quot;, &amp;quot;Anonymous Pro&amp;quot;, &amp;quot;Droid Sans Mono&amp;quot;, Menlo, Monaco, Consolas, Inconsolata, Courier, monospace, &amp;quot;PingFang SC&amp;quot;, &amp;quot;Microsoft YaHei&amp;quot;, sans-serif; font-size: 14px; text-align: left; background-color: rgb(250, 250, 250);&quot;&gt;UITableViewCell&lt;/span&gt;" style="rounded=0;whiteSpace=wrap;html=1;fontSize=10;fillColor=#b1ddf0;strokeColor=#10739e;" vertex="1" parent="1">
          <mxGeometry x="205" y="500" width="370" height="40" as="geometry" />
        </mxCell>
        <mxCell id="iGWQNrGughwgW1b6b_QS-16" value="&lt;span style=&quot;color: rgb(193, 132, 1); font-family: &amp;quot;Source Code Pro&amp;quot;, &amp;quot;DejaVu Sans Mono&amp;quot;, &amp;quot;Ubuntu Mono&amp;quot;, &amp;quot;Anonymous Pro&amp;quot;, &amp;quot;Droid Sans Mono&amp;quot;, Menlo, Monaco, Consolas, Inconsolata, Courier, monospace, &amp;quot;PingFang SC&amp;quot;, &amp;quot;Microsoft YaHei&amp;quot;, sans-serif; font-size: 14px; text-align: left; background-color: rgb(250, 250, 250);&quot;&gt;UITableViewCell&lt;/span&gt;" style="rounded=0;whiteSpace=wrap;html=1;fontSize=10;fillColor=#b1ddf0;strokeColor=#10739e;" vertex="1" parent="1">
          <mxGeometry x="205" y="615" width="370" height="40" as="geometry" />
        </mxCell>
        <mxCell id="iGWQNrGughwgW1b6b_QS-17" value="&lt;span style=&quot;color: rgb(193, 132, 1); font-family: &amp;quot;Source Code Pro&amp;quot;, &amp;quot;DejaVu Sans Mono&amp;quot;, &amp;quot;Ubuntu Mono&amp;quot;, &amp;quot;Anonymous Pro&amp;quot;, &amp;quot;Droid Sans Mono&amp;quot;, Menlo, Monaco, Consolas, Inconsolata, Courier, monospace, &amp;quot;PingFang SC&amp;quot;, &amp;quot;Microsoft YaHei&amp;quot;, sans-serif; font-size: 14px; text-align: left; background-color: rgb(250, 250, 250);&quot;&gt;UITableViewCell&lt;/span&gt;" style="rounded=0;whiteSpace=wrap;html=1;fontSize=10;fillColor=#b1ddf0;strokeColor=#10739e;" vertex="1" parent="1">
          <mxGeometry x="205" y="580" width="370" height="40" as="geometry" />
        </mxCell>
        <mxCell id="iGWQNrGughwgW1b6b_QS-18" value="&lt;span style=&quot;color: rgb(193, 132, 1); font-family: &amp;quot;Source Code Pro&amp;quot;, &amp;quot;DejaVu Sans Mono&amp;quot;, &amp;quot;Ubuntu Mono&amp;quot;, &amp;quot;Anonymous Pro&amp;quot;, &amp;quot;Droid Sans Mono&amp;quot;, Menlo, Monaco, Consolas, Inconsolata, Courier, monospace, &amp;quot;PingFang SC&amp;quot;, &amp;quot;Microsoft YaHei&amp;quot;, sans-serif; font-size: 14px; text-align: left; background-color: rgb(250, 250, 250);&quot;&gt;UITableViewCell&lt;/span&gt;" style="rounded=0;whiteSpace=wrap;html=1;fontSize=10;fillColor=#b1ddf0;strokeColor=#10739e;" vertex="1" parent="1">
          <mxGeometry x="205" y="695" width="370" height="40" as="geometry" />
        </mxCell>
        <mxCell id="iGWQNrGughwgW1b6b_QS-19" value="&lt;span style=&quot;color: rgb(193, 132, 1); font-family: &amp;quot;Source Code Pro&amp;quot;, &amp;quot;DejaVu Sans Mono&amp;quot;, &amp;quot;Ubuntu Mono&amp;quot;, &amp;quot;Anonymous Pro&amp;quot;, &amp;quot;Droid Sans Mono&amp;quot;, Menlo, Monaco, Consolas, Inconsolata, Courier, monospace, &amp;quot;PingFang SC&amp;quot;, &amp;quot;Microsoft YaHei&amp;quot;, sans-serif; font-size: 14px; text-align: left; background-color: rgb(250, 250, 250);&quot;&gt;UITableViewCell&lt;/span&gt;" style="rounded=0;whiteSpace=wrap;html=1;fontSize=10;fillColor=#b1ddf0;strokeColor=#10739e;" vertex="1" parent="1">
          <mxGeometry x="205" y="540" width="370" height="40" as="geometry" />
        </mxCell>
        <mxCell id="iGWQNrGughwgW1b6b_QS-20" value="&lt;span style=&quot;color: rgb(193, 132, 1); font-family: &amp;quot;Source Code Pro&amp;quot;, &amp;quot;DejaVu Sans Mono&amp;quot;, &amp;quot;Ubuntu Mono&amp;quot;, &amp;quot;Anonymous Pro&amp;quot;, &amp;quot;Droid Sans Mono&amp;quot;, Menlo, Monaco, Consolas, Inconsolata, Courier, monospace, &amp;quot;PingFang SC&amp;quot;, &amp;quot;Microsoft YaHei&amp;quot;, sans-serif; font-size: 14px; text-align: left; background-color: rgb(250, 250, 250);&quot;&gt;UITableViewCell&lt;/span&gt;" style="rounded=0;whiteSpace=wrap;html=1;fontSize=10;fillColor=#b1ddf0;strokeColor=#10739e;" vertex="1" parent="1">
          <mxGeometry x="205" y="655" width="370" height="40" as="geometry" />
        </mxCell>
        <mxCell id="iGWQNrGughwgW1b6b_QS-22" value="" style="shape=curlyBracket;whiteSpace=wrap;html=1;rounded=1;fontSize=10;" vertex="1" parent="1">
          <mxGeometry x="150" y="440" width="20" height="390" as="geometry" />
        </mxCell>
        <mxCell id="iGWQNrGughwgW1b6b_QS-23" value="cells" style="text;html=1;strokeColor=#23445d;fillColor=#bac8d3;align=center;verticalAlign=middle;whiteSpace=wrap;rounded=0;fontSize=10;" vertex="1" parent="1">
          <mxGeometry x="80" y="620" width="60" height="30" as="geometry" />
        </mxCell>
        <mxCell id="iGWQNrGughwgW1b6b_QS-24" value="" style="shape=curlyBracket;whiteSpace=wrap;html=1;rounded=1;flipH=1;fontSize=10;" vertex="1" parent="1">
          <mxGeometry x="600" y="250" width="20" height="580" as="geometry" />
        </mxCell>
        <mxCell id="iGWQNrGughwgW1b6b_QS-25" value="&lt;font style=&quot;font-size: 17px;&quot;&gt;UITableView&lt;/font&gt;" style="text;html=1;strokeColor=#b46504;fillColor=#fad7ac;align=center;verticalAlign=middle;whiteSpace=wrap;rounded=0;fontSize=10;" vertex="1" parent="1">
          <mxGeometry x="630" y="525" width="120" height="30" as="geometry" />
        </mxCell>
        <mxCell id="iGWQNrGughwgW1b6b_QS-26" value="&lt;font style=&quot;font-size: 12px;&quot;&gt;textLabel&lt;/font&gt;" style="rounded=0;whiteSpace=wrap;html=1;fontSize=17;fillColor=#b1ddf0;strokeColor=#10739e;" vertex="1" parent="1">
          <mxGeometry x="336" y="390" width="76" height="30" as="geometry" />
        </mxCell>
        <mxCell id="ZnN1d7Jc3gea5aJHJcPv-1" value="ImageView" style="ellipse;whiteSpace=wrap;html=1;aspect=fixed;rounded=0;fontSize=15;fillColor=#647687;fontColor=#ffffff;strokeColor=#314354;" vertex="1" parent="1">
          <mxGeometry x="334" y="310" width="80" height="80" as="geometry" />
        </mxCell>
        <mxCell id="ZnN1d7Jc3gea5aJHJcPv-4" value="button" style="rounded=0;whiteSpace=wrap;html=1;fillColor=#fad9d5;strokeColor=#ae4132;" vertex="1" parent="1">
          <mxGeometry x="354" y="360" width="40" height="15" as="geometry" />
        </mxCell>
      </root>
    </mxGraphModel>
  </diagram>
  <diagram id="fHdtC1yqUfCIb_XAY_rC" name="Page-2">
    <mxGraphModel dx="1186" dy="764" grid="1" gridSize="10" guides="1" tooltips="1" connect="1" arrows="1" fold="1" page="1" pageScale="1" pageWidth="827" pageHeight="1169" math="0" shadow="0">
      <root>
        <mxCell id="0" />
        <mxCell id="1" parent="0" />
        <mxCell id="ZTiqwDYOiPnYfN0aSoOF-1" value="" style="rounded=0;whiteSpace=wrap;html=1;fontSize=12;fillColor=#d5e8d4;strokeColor=#82b366;" vertex="1" parent="1">
          <mxGeometry x="260" y="70" width="370" height="640" as="geometry" />
        </mxCell>
        <mxCell id="ZTiqwDYOiPnYfN0aSoOF-3" value="&lt;font style=&quot;font-size: 16px;&quot;&gt;&lt;b&gt;UIImageView&lt;/b&gt;&lt;/font&gt;" style="rounded=0;whiteSpace=wrap;html=1;fontSize=12;fillColor=#bac8d3;strokeColor=#23445d;" vertex="1" parent="1">
          <mxGeometry x="260" y="70" width="370" height="90" as="geometry" />
        </mxCell>
        <mxCell id="ZTiqwDYOiPnYfN0aSoOF-4" value="" style="rounded=0;whiteSpace=wrap;html=1;fontSize=16;fillColor=#fad7ac;strokeColor=#b46504;" vertex="1" parent="1">
          <mxGeometry x="260" y="160" width="370" height="310" as="geometry" />
        </mxCell>
        <mxCell id="ZTiqwDYOiPnYfN0aSoOF-5" value="&lt;font style=&quot;font-size: 12px;&quot;&gt;UIImageView&lt;/font&gt;" style="ellipse;whiteSpace=wrap;html=1;aspect=fixed;fontSize=16;fillColor=#b1ddf0;strokeColor=#10739e;" vertex="1" parent="1">
          <mxGeometry x="280" y="140" width="80" height="80" as="geometry" />
        </mxCell>
        <mxCell id="ZTiqwDYOiPnYfN0aSoOF-6" value="UIButton" style="rounded=0;whiteSpace=wrap;html=1;fontSize=12;fillColor=#e1d5e7;strokeColor=#9673a6;" vertex="1" parent="1">
          <mxGeometry x="380" y="165" width="150" height="30" as="geometry" />
        </mxCell>
        <mxCell id="ZTiqwDYOiPnYfN0aSoOF-8" value="UIButton" style="rounded=0;whiteSpace=wrap;html=1;fontSize=12;fillColor=#e1d5e7;strokeColor=#9673a6;" vertex="1" parent="1">
          <mxGeometry x="540" y="165" width="70" height="30" as="geometry" />
        </mxCell>
        <mxCell id="ZTiqwDYOiPnYfN0aSoOF-9" value="UILabel" style="rounded=0;whiteSpace=wrap;html=1;fontSize=12;fillColor=#dae8fc;strokeColor=#6c8ebf;" vertex="1" parent="1">
          <mxGeometry x="270" y="230" width="110" height="40" as="geometry" />
        </mxCell>
        <mxCell id="ZTiqwDYOiPnYfN0aSoOF-10" value="UILabel" style="rounded=0;whiteSpace=wrap;html=1;fontSize=12;fillColor=#dae8fc;strokeColor=#6c8ebf;" vertex="1" parent="1">
          <mxGeometry x="270" y="280" width="150" height="20" as="geometry" />
        </mxCell>
        <mxCell id="ZTiqwDYOiPnYfN0aSoOF-11" value="UIButton" style="rounded=0;whiteSpace=wrap;html=1;fontSize=12;fillColor=#e1d5e7;strokeColor=#9673a6;" vertex="1" parent="1">
          <mxGeometry x="270" y="315" width="280" height="30" as="geometry" />
        </mxCell>
        <mxCell id="ZTiqwDYOiPnYfN0aSoOF-12" value="UIButton" style="rounded=0;whiteSpace=wrap;html=1;fontSize=12;fillColor=#e1d5e7;strokeColor=#9673a6;" vertex="1" parent="1">
          <mxGeometry x="270" y="360" width="280" height="30" as="geometry" />
        </mxCell>
        <mxCell id="ZTiqwDYOiPnYfN0aSoOF-13" value="UILabel" style="rounded=0;whiteSpace=wrap;html=1;fontSize=12;fillColor=#dae8fc;strokeColor=#6c8ebf;" vertex="1" parent="1">
          <mxGeometry x="270" y="410" width="50" height="25" as="geometry" />
        </mxCell>
        <mxCell id="ZTiqwDYOiPnYfN0aSoOF-14" value="UILabel" style="rounded=0;whiteSpace=wrap;html=1;fontSize=12;fillColor=#dae8fc;strokeColor=#6c8ebf;" vertex="1" parent="1">
          <mxGeometry x="340" y="410" width="50" height="25" as="geometry" />
        </mxCell>
        <mxCell id="ZTiqwDYOiPnYfN0aSoOF-15" value="UILabel" style="rounded=0;whiteSpace=wrap;html=1;fontSize=12;fillColor=#dae8fc;strokeColor=#6c8ebf;" vertex="1" parent="1">
          <mxGeometry x="414" y="410" width="50" height="25" as="geometry" />
        </mxCell>
        <mxCell id="ZTiqwDYOiPnYfN0aSoOF-16" value="" style="shape=curlyBracket;whiteSpace=wrap;html=1;rounded=1;fontSize=12;" vertex="1" parent="1">
          <mxGeometry x="230" y="160" width="20" height="310" as="geometry" />
        </mxCell>
        <mxCell id="ZTiqwDYOiPnYfN0aSoOF-18" value="" style="rounded=0;whiteSpace=wrap;html=1;fontSize=12;fillColor=#f8cecc;strokeColor=#b85450;" vertex="1" parent="1">
          <mxGeometry x="260" y="470" width="370" height="60" as="geometry" />
        </mxCell>
        <mxCell id="ZTiqwDYOiPnYfN0aSoOF-19" value="" style="rounded=0;whiteSpace=wrap;html=1;fontSize=12;fillColor=#d5e8d4;strokeColor=#82b366;" vertex="1" parent="1">
          <mxGeometry x="260" y="530" width="370" height="190" as="geometry" />
        </mxCell>
        <mxCell id="ZTiqwDYOiPnYfN0aSoOF-20" value="UIImageView" style="rounded=0;whiteSpace=wrap;html=1;fontSize=12;fillColor=#f5f5f5;strokeColor=#666666;fontColor=#333333;" vertex="1" parent="1">
          <mxGeometry x="270" y="530" width="110" height="135" as="geometry" />
        </mxCell>
        <mxCell id="ZTiqwDYOiPnYfN0aSoOF-21" value="&lt;meta charset=&quot;utf-8&quot;&gt;&lt;span style=&quot;color: rgb(51, 51, 51); font-family: Helvetica; font-size: 12px; font-style: normal; font-variant-ligatures: normal; font-variant-caps: normal; font-weight: 400; letter-spacing: normal; orphans: 2; text-align: center; text-indent: 0px; text-transform: none; widows: 2; word-spacing: 0px; -webkit-text-stroke-width: 0px; background-color: rgb(248, 249, 250); text-decoration-thickness: initial; text-decoration-style: initial; text-decoration-color: initial; float: none; display: inline !important;&quot;&gt;UIImageView&lt;/span&gt;" style="rounded=0;whiteSpace=wrap;html=1;fontSize=12;fillColor=#f5f5f5;strokeColor=#666666;fontColor=#333333;" vertex="1" parent="1">
          <mxGeometry x="390" y="530" width="110" height="135" as="geometry" />
        </mxCell>
        <mxCell id="ZTiqwDYOiPnYfN0aSoOF-22" value="&lt;meta charset=&quot;utf-8&quot;&gt;&lt;span style=&quot;color: rgb(51, 51, 51); font-family: Helvetica; font-size: 12px; font-style: normal; font-variant-ligatures: normal; font-variant-caps: normal; font-weight: 400; letter-spacing: normal; orphans: 2; text-align: center; text-indent: 0px; text-transform: none; widows: 2; word-spacing: 0px; -webkit-text-stroke-width: 0px; background-color: rgb(248, 249, 250); text-decoration-thickness: initial; text-decoration-style: initial; text-decoration-color: initial; float: none; display: inline !important;&quot;&gt;UIImageView&lt;/span&gt;" style="rounded=0;whiteSpace=wrap;html=1;fontSize=12;fillColor=#f5f5f5;strokeColor=#666666;fontColor=#333333;" vertex="1" parent="1">
          <mxGeometry x="510" y="530" width="110" height="135" as="geometry" />
        </mxCell>
        <mxCell id="ZTiqwDYOiPnYfN0aSoOF-25" value="UILabel" style="rounded=0;whiteSpace=wrap;html=1;fontSize=12;fillColor=#dae8fc;strokeColor=#6c8ebf;" vertex="1" parent="1">
          <mxGeometry x="270" y="480" width="110" height="40" as="geometry" />
        </mxCell>
        <mxCell id="ZTiqwDYOiPnYfN0aSoOF-26" value="UILabel" style="rounded=0;whiteSpace=wrap;html=1;fontSize=12;fillColor=#dae8fc;strokeColor=#6c8ebf;" vertex="1" parent="1">
          <mxGeometry x="390" y="480" width="110" height="40" as="geometry" />
        </mxCell>
        <mxCell id="ZTiqwDYOiPnYfN0aSoOF-27" value="UILabel" style="rounded=0;whiteSpace=wrap;html=1;fontSize=12;fillColor=#dae8fc;strokeColor=#6c8ebf;" vertex="1" parent="1">
          <mxGeometry x="510" y="480" width="110" height="40" as="geometry" />
        </mxCell>
        <mxCell id="ZTiqwDYOiPnYfN0aSoOF-29" value="image" style="rounded=0;whiteSpace=wrap;html=1;fontSize=12;fillColor=#bac8d3;strokeColor=#23445d;" vertex="1" parent="1">
          <mxGeometry x="280" y="640" width="30" height="20" as="geometry" />
        </mxCell>
        <mxCell id="ZTiqwDYOiPnYfN0aSoOF-30" value="Label" style="rounded=0;whiteSpace=wrap;html=1;fontSize=12;fillColor=#dae8fc;strokeColor=#6c8ebf;" vertex="1" parent="1">
          <mxGeometry x="315" y="640" width="60" height="20" as="geometry" />
        </mxCell>
        <mxCell id="ZTiqwDYOiPnYfN0aSoOF-31" value="image" style="rounded=0;whiteSpace=wrap;html=1;fontSize=12;fillColor=#bac8d3;strokeColor=#23445d;" vertex="1" parent="1">
          <mxGeometry x="515" y="640" width="35" height="20" as="geometry" />
        </mxCell>
        <mxCell id="ZTiqwDYOiPnYfN0aSoOF-32" value="image" style="rounded=0;whiteSpace=wrap;html=1;fontSize=12;fillColor=#bac8d3;strokeColor=#23445d;" vertex="1" parent="1">
          <mxGeometry x="396" y="640" width="35" height="20" as="geometry" />
        </mxCell>
        <mxCell id="ZTiqwDYOiPnYfN0aSoOF-33" value="Label" style="rounded=0;whiteSpace=wrap;html=1;fontSize=12;fillColor=#dae8fc;strokeColor=#6c8ebf;" vertex="1" parent="1">
          <mxGeometry x="550" y="640" width="60" height="20" as="geometry" />
        </mxCell>
        <mxCell id="ZTiqwDYOiPnYfN0aSoOF-34" value="Label" style="rounded=0;whiteSpace=wrap;html=1;fontSize=12;fillColor=#dae8fc;strokeColor=#6c8ebf;" vertex="1" parent="1">
          <mxGeometry x="431" y="640" width="60" height="20" as="geometry" />
        </mxCell>
        <mxCell id="ZTiqwDYOiPnYfN0aSoOF-35" value="" style="shape=curlyBracket;whiteSpace=wrap;html=1;rounded=1;flipH=1;fontSize=12;fillColor=#1ba1e2;fontColor=#ffffff;strokeColor=#006EAF;" vertex="1" parent="1">
          <mxGeometry x="630" y="470" width="20" height="60" as="geometry" />
        </mxCell>
        <mxCell id="ZTiqwDYOiPnYfN0aSoOF-37" value="" style="shape=curlyBracket;whiteSpace=wrap;html=1;rounded=1;flipH=1;fontSize=12;fillColor=#1ba1e2;fontColor=#ffffff;strokeColor=#006EAF;" vertex="1" parent="1">
          <mxGeometry x="630" y="530" width="20" height="190" as="geometry" />
        </mxCell>
        <mxCell id="ZTiqwDYOiPnYfN0aSoOF-38" value="&lt;font style=&quot;font-size: 15px;&quot;&gt;Header&lt;/font&gt;" style="text;html=1;strokeColor=none;fillColor=none;align=center;verticalAlign=middle;whiteSpace=wrap;rounded=0;fontSize=12;" vertex="1" parent="1">
          <mxGeometry x="650" y="485" width="60" height="30" as="geometry" />
        </mxCell>
        <mxCell id="ZTiqwDYOiPnYfN0aSoOF-39" value="&lt;font style=&quot;font-size: 15px;&quot;&gt;Cells&lt;/font&gt;" style="text;html=1;strokeColor=none;fillColor=none;align=center;verticalAlign=middle;whiteSpace=wrap;rounded=0;fontSize=16;" vertex="1" parent="1">
          <mxGeometry x="640" y="605" width="60" height="30" as="geometry" />
        </mxCell>
        <mxCell id="ZTiqwDYOiPnYfN0aSoOF-40" value="" style="shape=curlyBracket;whiteSpace=wrap;html=1;rounded=1;fontSize=16;" vertex="1" parent="1">
          <mxGeometry x="230" y="470" width="20" height="250" as="geometry" />
        </mxCell>
        <mxCell id="ZTiqwDYOiPnYfN0aSoOF-41" value="&lt;b&gt;CollectionView&lt;/b&gt;" style="text;html=1;strokeColor=none;fillColor=none;align=center;verticalAlign=middle;whiteSpace=wrap;rounded=0;fontSize=16;" vertex="1" parent="1">
          <mxGeometry x="140" y="580" width="60" height="30" as="geometry" />
        </mxCell>
        <mxCell id="ZTiqwDYOiPnYfN0aSoOF-42" value="" style="shape=curlyBracket;whiteSpace=wrap;html=1;rounded=1;flipH=1;fontSize=16;" vertex="1" parent="1">
          <mxGeometry x="700" y="470" width="20" height="250" as="geometry" />
        </mxCell>
        <mxCell id="ZTiqwDYOiPnYfN0aSoOF-43" value="&lt;font style=&quot;font-size: 14px;&quot;&gt;&lt;b&gt;UIColletionView&lt;/b&gt;&lt;/font&gt;" style="text;html=1;strokeColor=none;fillColor=none;align=center;verticalAlign=middle;whiteSpace=wrap;rounded=0;fontSize=16;" vertex="1" parent="1">
          <mxGeometry x="740" y="580" width="60" height="30" as="geometry" />
        </mxCell>
        <mxCell id="ZTiqwDYOiPnYfN0aSoOF-46" value="" style="shape=curlyBracket;whiteSpace=wrap;html=1;rounded=1;flipH=1;fontSize=14;" vertex="1" parent="1">
          <mxGeometry x="630" y="160" width="20" height="310" as="geometry" />
        </mxCell>
        <mxCell id="ZTiqwDYOiPnYfN0aSoOF-47" value="&lt;b&gt;UIView&lt;/b&gt;" style="text;html=1;strokeColor=none;fillColor=none;align=center;verticalAlign=middle;whiteSpace=wrap;rounded=0;fontSize=14;" vertex="1" parent="1">
          <mxGeometry x="650" y="300" width="60" height="30" as="geometry" />
        </mxCell>
        <mxCell id="ZTiqwDYOiPnYfN0aSoOF-48" value="&lt;b&gt;PersonalPageView&lt;/b&gt;" style="text;html=1;strokeColor=none;fillColor=none;align=center;verticalAlign=middle;whiteSpace=wrap;rounded=0;fontSize=15;" vertex="1" parent="1">
          <mxGeometry x="130" y="300" width="60" height="30" as="geometry" />
        </mxCell>
        <mxCell id="ZTiqwDYOiPnYfN0aSoOF-49" value="" style="shape=curlyBracket;whiteSpace=wrap;html=1;rounded=1;fontSize=15;" vertex="1" parent="1">
          <mxGeometry x="230" y="70" width="20" height="90" as="geometry" />
        </mxCell>
        <mxCell id="ZTiqwDYOiPnYfN0aSoOF-50" value="&lt;span style=&quot;color: rgb(51, 51, 51); font-family: Helvetica; font-style: normal; font-variant-ligatures: normal; font-variant-caps: normal; letter-spacing: normal; orphans: 2; text-align: center; text-indent: 0px; text-transform: none; widows: 2; word-spacing: 0px; -webkit-text-stroke-width: 0px; background-color: rgb(248, 249, 250); text-decoration-thickness: initial; text-decoration-style: initial; text-decoration-color: initial; float: none; display: inline !important;&quot;&gt;&lt;b style=&quot;&quot;&gt;&lt;font style=&quot;font-size: 15px;&quot;&gt;UIImageView&lt;/font&gt;&lt;/b&gt;&lt;/span&gt;" style="text;whiteSpace=wrap;html=1;fontSize=15;" vertex="1" parent="1">
          <mxGeometry x="130" y="100" width="100" height="30" as="geometry" />
        </mxCell>
      </root>
    </mxGraphModel>
  </diagram>
</mxfile>
